<svg id="Layer_1" data-name="Layer 1" xmlns="http://www.w3.org/2000/svg" viewBox="0 0 205.8 204.2"><defs><style>.cls-1,.cls-2,.cls-4,.cls-8{fill:#fff;}.cls-2,.cls-6{stroke:#9abd4b;stroke-width:4.41px;}.cls-12,.cls-13,.cls-17,.cls-2,.cls-6,.cls-8{stroke-miterlimit:10;}.cls-3{fill:#5d7031;}.cls-4,.cls-8{stroke:#fff;stroke-width:6px;}.cls-11,.cls-14,.cls-15,.cls-16,.cls-4{stroke-linejoin:round;}.cls-5{fill:#666565;}.cls-11,.cls-12,.cls-13,.cls-14,.cls-15,.cls-16,.cls-17,.cls-6,.cls-9{fill:none;}.cls-7{fill:#d8ae58;}.cls-10{fill:#666665;}.cls-11,.cls-12,.cls-13{stroke:#666665;}.cls-11,.cls-16{stroke-linecap:round;}.cls-11,.cls-12,.cls-14,.cls-16{stroke-width:2px;}.cls-13{stroke-width:2.1px;}.cls-14,.cls-15,.cls-16,.cls-17{stroke:#d42027;}</style></defs><title>traa_logo_ellipse</title><g id="BkDrp"><circle class="cls-1" cx="103.7" cy="102.1" r="102.1"/></g><g id="logo"><circle class="cls-2" cx="104.7" cy="96.4" r="76.5"/><path class="cls-3" d="M78.9,81.6h2.2L72.6,63.9,64.1,81.6h2.2l-2.2,4.7h2.2L64.1,91h7.4v4a1.11,1.11,0,0,0,1.1,1.1h0A1.11,1.11,0,0,0,73.7,95V90.9h7.4l-2.2-4.7h2.2Z" transform="translate(1.6)"/><path class="cls-3" d="M73.7,90.9h7.4l-2.2-4.7h2.2l-2.2-4.7h2.2L72.6,63.8V96h0a1.11,1.11,0,0,0,1.1-1.1Z" transform="translate(1.6)"/><path class="cls-4" d="M156.8,113.8s-10.3-1.2-14.2,7.6c0,0-1.5,6.1-5.5,8,0,0,12.6-3.5,16.7-6.3a83.85,83.85,0,0,1,6.3-6.5" transform="translate(1.6)"/><path class="cls-3" d="M165.2,77.3h3.3L156,51.2,143.5,77.4h3.3l-3.3,6.9h3.3l-3.3,6.9h10.9v6a1.58,1.58,0,0,0,1.6,1.6h0a1.58,1.58,0,0,0,1.6-1.6v-6h10.9l-3.3-6.9h3.3Z" transform="translate(1.6)"/><path class="cls-3" d="M157.6,91.2h10.9l-3.3-6.9h3.3l-3.3-6.9h3.3L156,51.2V98.7h0a1.58,1.58,0,0,0,1.6-1.6Z" transform="translate(1.6)"/><path class="cls-3" d="M138.1,79.3H140L132.8,64l-7.3,15.3h1.9l-1.9,4h1.9l-1.9,4h6.4v3.5a.9.9,0,0,0,.9.9h0a.9.9,0,0,0,.9-.9V87.3h6.4l-1.9-4h1.9Z" transform="translate(1.6)"/><path class="cls-3" d="M133.7,87.4h6.4l-1.9-4h1.9l-1.9-4h1.9L132.8,64V91.8h0a.9.9,0,0,0,.9-.9Z" transform="translate(1.6)"/><path class="cls-3" d="M55.8,78.2h2.8L47.9,56.6,37.2,78.2H40l-2.8,5.7H40l-2.8,5.7h9.4v4.9a1.32,1.32,0,0,0,1.3,1.3h0a1.32,1.32,0,0,0,1.3-1.3V89.6h9.4l-2.8-5.7h2.8Z" transform="translate(1.6)"/><path class="cls-3" d="M49.3,89.7h9.4L55.9,84h2.8l-2.8-5.7h2.8L47.9,56.6V95.9h0a1.32,1.32,0,0,0,1.3-1.3V89.7Z" transform="translate(1.6)"/><path class="cls-5" d="M68.7,98.3" transform="translate(1.6)"/><circle class="cls-6" cx="104.7" cy="96.4" r="76.5"/><path class="cls-5" d="M25.9,137.4l-.9-1.9-11.7,5.7-.9-1.8,11.7-5.7-.9-1.9,1.9-.9,2.7,5.6Z" transform="translate(1.6)"/><path class="cls-5" d="M31.5,142.6l-13.1,7.8-1-1.7,6.1-3.7-1.1-1.8-6.1,3.7-1-1.7,13.1-7.8,1,1.7-5.1,3,1.1,1.8,5.1-3Z" transform="translate(1.6)"/><path class="cls-5" d="M25,153.7l-1.2-1.6-3.1,1.7-1.1-1.6,13.7-7,1.2,1.7-11,10.8L22.3,156Zm1.6-1.6,4.1-3.7h0l-4.8,2.7Z" transform="translate(1.6)"/><path class="cls-5" d="M41.8,155.6l-11.4,10-1.3-1.5,7-6.2-7.9,5.2-.9-1.1,6.2-7.1h0l-7,6.2-1.3-1.5,11.4-10,1.8,2.1-6,7h0l7.7-5Z" transform="translate(1.6)"/><path class="cls-5" d="M42.7,159.5l-2.6,2.7,1.5,1.4-1.5,1.6-1.5-1.4-3.4,3.6,2.2,2.1-1.5,1.6-3.7-3.5,10.5-11,3.6,3.4-1.5,1.6Z" transform="translate(1.6)"/><path class="cls-5" d="M47.3,166.3l.4-.5c.7-.8.7-1.5.3-1.9a1.15,1.15,0,0,0-1.5.3,2.67,2.67,0,0,0-.7,1.8l-.4,3.7a6.37,6.37,0,0,1-1.4,3.8c-1.4,1.7-3.2,1.8-4.5.7s-1.5-2.8-.1-4.5l1-1.2,1.6,1.3-.9,1.1c-.6.7-.6,1.3-.2,1.7s1,.2,1.6-.5a3.55,3.55,0,0,0,.8-2l.2-2.9c.2-2,.2-2.6,1.5-4.3s3.1-1.8,4.4-.7,1.4,2.9.1,4.5l-.7.8Z" transform="translate(1.6)"/><path class="cls-5" d="M50.7,182.1l1.6-6.2a3.29,3.29,0,0,0-.6-.3l-3.3,5.2-1.7-1.1,8.1-12.8,2.9,1.8c1.6,1,1.4,3.2.1,5.2s-2.6,2.7-3.8,2.8l-1.7,6.6Zm2.4-8.5.5.3c1.1.7,1.5.7,2.7-1.2.7-1,1-1.9.3-2.4l-1.1-.7Z" transform="translate(1.6)"/><path class="cls-5" d="M55.9,185l-1.8-1,7.3-13.3,1.8,1Z" transform="translate(1.6)"/><path class="cls-5" d="M62,188l-2-.9,4.1-14.8,2,.9L62.7,184h0l6.1-9.6,2,.9Z" transform="translate(1.6)"/><path class="cls-5" d="M72.8,178.3l-1.3,3.5,1.9.7-.7,2-1.9-.7-1.7,4.6,2.9,1.1-.7,2-4.8-1.8,5.2-14.3,4.6,1.7-.7,2Z" transform="translate(1.6)"/><path class="cls-5" d="M77.7,193.5l-.2-6.4a3.93,3.93,0,0,0-.6-.2l-1.6,5.9-1.9-.5,4-14.6,3.3.9c1.9.5,2.3,2.6,1.6,5-.6,2.2-1.7,3.4-2.8,3.8l.3,6.8Zm-.2-8.8.6.2c1.3.4,1.7.2,2.3-1.9.3-1.2.4-2.1-.4-2.4l-1.3-.3Z" transform="translate(1.6)"/><path class="cls-5" d="M89.6,192.3l-1.9-.3-.9,3.4-1.9-.3,4.5-14.7,2,.3.1,15.4-2-.3Zm0-2.2.2-5.5h0l-1.4,5.3Z" transform="translate(1.6)"/><path class="cls-5" d="M100.8,181.6l-1,15.2-2-.1-1.4-8.8h0l-.6,8.7-2-.1,1-15.2,2.1.1,1.3,8.5h0l.6-8.4Z" transform="translate(1.6)"/><path class="cls-5" d="M106.1,185.9v-1.2c0-.5-.4-1.2-1-1.2s-1,.8-1,1.3l.2,8.8a1.12,1.12,0,0,0,1.1,1.2c.8,0,1.1-.7,1.1-2l-.1-2.3h-1.1v-2.2l3-.1.1,4.7c0,2.1-.8,3.9-2.9,4a3,3,0,0,1-3.1-3.3l-.2-8.8c0-1.5.7-3.4,3-3.5a3.21,3.21,0,0,1,3.1,3.3v1.2Z" transform="translate(1.6)"/><path class="cls-5" d="M115.3,193.9l.2,2.2-4.7.5-1.5-15.1,2-.2,1.3,13Z" transform="translate(1.6)"/><path class="cls-5" d="M117.3,182.6l.6,3.7,2-.3.4,2.1-2,.3.8,4.9,3.1-.5.4,2.1-5.1.9-2.5-15,4.8-.8.4,2.1Z" transform="translate(1.6)"/><path class="cls-5" d="M129.2,193.3l-3.4-5.5c-.3.1-.6.1-.6.2l1.5,5.9-2,.5L121,179.7l3.3-.8c1.9-.5,3.3,1.1,3.9,3.5.6,2.2.2,3.8-.6,4.6l3.7,5.8Zm-4.6-7.5.6-.2c1.3-.3,1.6-.6,1-2.8-.3-1.2-.7-2-1.5-1.9l-1.3.3Z" transform="translate(1.6)"/><path class="cls-5" d="M133,180.7l-.2-.6c-.3-1-.9-1.4-1.4-1.3a1.07,1.07,0,0,0-.5,1.4,3.32,3.32,0,0,0,1.1,1.6l2.9,2.3a5.86,5.86,0,0,1,2.5,3.2c.7,2.1-.2,3.7-1.7,4.2s-3.2-.2-3.9-2.3l-.5-1.5,1.9-.7.5,1.3c.3.9.8,1.2,1.3,1s.7-.8.4-1.6a3.26,3.26,0,0,0-1.3-1.7l-2.4-1.6c-1.6-1.3-2.2-1.6-2.8-3.5a3.1,3.1,0,0,1,1.7-4.2c1.6-.6,3.2.3,3.9,2.2l.3,1Z" transform="translate(1.6)"/><path class="cls-5" d="M146.1,183.2l-1.8.9,1.2,3.4-1.7.8-4.5-14.7,1.8-.9,8.7,12.6-1.8.9Zm-1.3-1.9-2.9-4.6h0l1.8,5.2Z" transform="translate(1.6)"/><path class="cls-5" d="M149.2,173l-.3-.5c-.5-.9-1.2-1.2-1.6-1a1.17,1.17,0,0,0-.2,1.5,3,3,0,0,0,1.4,1.3l3.3,1.6a6.14,6.14,0,0,1,3.1,2.7,3,3,0,1,1-5.2,3.1l-.8-1.4,1.8-1,.7,1.2c.5.8,1,1,1.5.7s.5-.9.1-1.7a3.11,3.11,0,0,0-1.6-1.4l-2.6-1.1c-1.8-.9-2.4-1.1-3.5-2.9s-.7-3.5.8-4.4,3.2-.3,4.3,1.4l.5.9Z" transform="translate(1.6)"/><path class="cls-5" d="M155.1,169.1l-.4-.5c-.6-.9-1.3-1.1-1.7-.8a1.06,1.06,0,0,0-.1,1.5,3.09,3.09,0,0,0,1.5,1.2l3.5,1.4a5.5,5.5,0,0,1,3.3,2.4,3,3,0,0,1-.5,4.5c-1.3.9-3.1.7-4.4-1.1l-.9-1.3,1.7-1.2.8,1.2c.5.8,1.1.9,1.5.6s.5-.9-.1-1.7a3.56,3.56,0,0,0-1.7-1.3l-2.7-.9c-1.9-.8-2.5-.9-3.7-2.6s-.9-3.5.5-4.5,3.2-.6,4.4,1.1l.6.9Z" transform="translate(1.6)"/><path class="cls-5" d="M161.9,162.4l5.6,6.7c1,1.2,1.5,3.2-.1,4.5s-3.5.5-4.5-.7l-5.6-6.7c-1-1.2-1.6-3.1.2-4.5C159,160.4,160.9,161.2,161.9,162.4Zm-1.6,1.3c-.3-.3-1.1-.8-1.5-.4a1.34,1.34,0,0,0,0,1.6l5.6,6.7c.3.4,1.1.8,1.6.4s.2-1.2-.1-1.6Z" transform="translate(1.6)"/><path class="cls-5" d="M166.6,159.5l-.8-.9c-.3-.3-1.1-.6-1.5-.2a1.2,1.2,0,0,0,.1,1.6l6.2,6.2c.3.3,1.1.7,1.6.2s.1-1.2-.2-1.5l-.8-.9,1.5-1.4.8.9a3.17,3.17,0,0,1,.3,4.5c-1.6,1.6-3.5.8-4.6-.2l-6.2-6.3a3.1,3.1,0,0,1-.2-4.6,3.16,3.16,0,0,1,4.5.3l.8.9Z" transform="translate(1.6)"/><path class="cls-5" d="M178.5,162.6l-1.4,1.5L165.8,154l1.4-1.5Z" transform="translate(1.6)"/><path class="cls-5" d="M179.7,155.6l-1.2,1.5,2.5,2.5-1.2,1.5-10.5-11.2,1.3-1.6,13.4,7.6-1.3,1.6Zm-1.9-1.1-4.7-2.9h0l3.9,3.9Z" transform="translate(1.6)"/><path class="cls-5" d="M176.8,143.2l-1.2,1.7,10.7,7.4-1.2,1.7-10.7-7.4-1.2,1.7-1.8-1.2,3.5-5.1Z" transform="translate(1.6)"/><path class="cls-5" d="M189.7,147.1l-1,1.7-13-7.8,1-1.7Z" transform="translate(1.6)"/><path class="cls-5" d="M182.9,134.3l7.8,4a3.17,3.17,0,0,1,1.7,4.2c-1,2-3.1,1.8-4.4,1.1l-7.8-4a3.1,3.1,0,0,1-1.6-4.3C179.5,133.6,181.5,133.6,182.9,134.3Zm-.9,1.8c-.4-.2-1.3-.3-1.6.2s.3,1.3.6,1.5l7.8,4c.4.2,1.3.3,1.6-.3s-.3-1.2-.7-1.4Z" transform="translate(1.6)"/><path class="cls-5" d="M182.9,126.1l14,5.8-.8,1.9-8.8-1.5h0l8,3.3-.8,1.9-14-5.8.8-2,8.5,1.5h0L182,128Z" transform="translate(1.6)"/><path class="cls-5" d="M73.6,151.6H72.1l-.3,2.1H70.3l1.8-8.8h1.6l1.8,8.8H73.9Zm-.3-1.2-.5-3.2h0l-.5,3.2Z" transform="translate(1.6)"/><path class="cls-5" d="M81.9,144.9v8.8H80.3l-1.6-5.1h0v5.1H77.1v-8.8h1.7l1.5,4.9h0v-4.9Z" transform="translate(1.6)"/><path class="cls-5" d="M86.9,147.4v-.7a.75.75,0,0,0-.7-.7.77.77,0,0,0-.8.7v5.1a.71.71,0,0,0,.8.7c.6,0,.9-.4.9-1.1v-1.3h-.9v-1.3h2.3v2.7a2.15,2.15,0,0,1-2.3,2.3c-1.8,0-2.4-1.1-2.4-2v-5.1c0-.9.6-2,2.4-2a2.09,2.09,0,0,1,2.3,2v.7Z" transform="translate(1.6)"/><path class="cls-5" d="M93.9,152.4v1.3H90.3v-8.8h1.6v7.6h2Z" transform="translate(1.6)"/><path class="cls-5" d="M97.2,146.1v2.2h1.6v1.3H97.2v2.9h2.4v1.3h-4V145h3.8v1.3H97.2Z" transform="translate(1.6)"/><path class="cls-5" d="M104.9,153.7l-1.5-3.6h-.5v3.6h-1.6v-8.8h2.6c1.5,0,2.2,1.1,2.2,2.5a2.6,2.6,0,0,1-1.3,2.5l1.7,3.8Zm-2-4.9h.5c1,0,1.3-.1,1.3-1.4,0-.7-.2-1.3-.8-1.3h-1Z" transform="translate(1.6)"/><path class="cls-5" d="M111,147.3V147c0-.6-.3-1-.7-1a.68.68,0,0,0-.7.7,1.67,1.67,0,0,0,.4,1.1l1.6,1.8a3,3,0,0,1,1,2.2,2.08,2.08,0,0,1-2.3,2,2,2,0,0,1-2.3-2v-.9h1.6v.8a.71.71,0,1,0,1.4,0,1.85,1.85,0,0,0-.5-1.2l-1.3-1.3c-.8-1-1.2-1.3-1.2-2.5a2.32,2.32,0,0,1,4.6,0v.6Z" transform="translate(1.6)"/><path class="cls-5" d="M114.4,152.1H116v1.6h-1.6Z" transform="translate(1.6)"/><path class="cls-5" d="M122.4,146.7v5.1a2.09,2.09,0,0,1-2.3,2,2.12,2.12,0,0,1-2.4-2v-5.1c0-.9.6-2,2.4-2A2.09,2.09,0,0,1,122.4,146.7Zm-1.6,0a.75.75,0,0,0-.7-.7.77.77,0,0,0-.8.7v5.1a.78.78,0,0,0,.8.8.76.76,0,0,0,.7-.8Z" transform="translate(1.6)"/><path class="cls-5" d="M127.8,153.7l-1.5-3.6h-.5v3.6h-1.6v-8.8h2.6c1.5,0,2.2,1.1,2.2,2.5a2.6,2.6,0,0,1-1.3,2.5l1.7,3.8Zm-2-4.9h.5c1,0,1.3-.1,1.3-1.4,0-.7-.2-1.3-.8-1.3h-1Z" transform="translate(1.6)"/><path class="cls-5" d="M134,147.4v-.7a.75.75,0,0,0-.7-.7.77.77,0,0,0-.8.7v5.1a.71.71,0,0,0,.8.7c.6,0,.9-.4.9-1.1v-1.3h-.9v-1.3h2.3v2.7a2.15,2.15,0,0,1-2.3,2.3c-1.8,0-2.4-1.1-2.4-2v-5.1c0-.9.6-2,2.4-2a2.09,2.09,0,0,1,2.3,2v.7Z" transform="translate(1.6)"/><path class="cls-5" d="M79.1,49v2.4h1.8v1.4H79.1V56h2.7v1.4H77.4V47.6h4.2V49Z" transform="translate(1.6)"/><path class="cls-5" d="M87,50.3v-.4c0-.7-.4-1.1-.8-1.1a.79.79,0,0,0-.8.8,1.73,1.73,0,0,0,.5,1.2l1.8,2a3.25,3.25,0,0,1,1.1,2.5,2.33,2.33,0,0,1-2.6,2.2,2.24,2.24,0,0,1-2.5-2.2v-1h1.8v.9c0,.6.3.9.8.9a.82.82,0,0,0,.8-.9,1.76,1.76,0,0,0-.6-1.3L85,52.4c-.9-1.1-1.3-1.4-1.3-2.7a2.33,2.33,0,0,1,2.6-2.2,2.24,2.24,0,0,1,2.5,2.2v.7H87Z" transform="translate(1.6)"/><path class="cls-5" d="M95.9,49H94.1v8.4H92.3V49H90.5V47.6h5.4Z" transform="translate(1.6)"/><path class="cls-5" d="M96.9,55.6h1.8v1.8H96.9Z" transform="translate(1.6)"/><path class="cls-5" d="M104.6,47.6h1.8v9.8h-1.8V49h-.8V48Z" transform="translate(1.6)"/><path class="cls-5" d="M108.4,51.4V50a2.53,2.53,0,0,1,2.8-2.6,2.33,2.33,0,0,1,2.6,2.2v4.9a2.74,2.74,0,0,1-2.7,2.9,2.2,2.2,0,0,1-2.4-2.2v-.8h1.7v.8a.79.79,0,0,0,.8.8c.7,0,.9-.7.9-1.5V53a1.36,1.36,0,0,1-1.2.5A2.08,2.08,0,0,1,108.4,51.4Zm1.8,0a.82.82,0,0,0,.9.8c.6,0,.9-.3.9-.5v-2a.86.86,0,0,0-.8-.8c-.7,0-1,.4-1,1.2Z" transform="translate(1.6)"/><path class="cls-5" d="M121.4,54.6a2.76,2.76,0,0,1-2.8,2.9,2.84,2.84,0,0,1-2.9-2.9,2.49,2.49,0,0,1,1.6-2.5,2.64,2.64,0,0,1-1.3-2.2,2.31,2.31,0,0,1,2.5-2.5,2.27,2.27,0,0,1,2.5,2.5,2.44,2.44,0,0,1-1.3,2.2A2.45,2.45,0,0,1,121.4,54.6Zm-1.8,0c0-.9-.2-1.6-1-1.8-.8.2-1.1.8-1.1,1.8s.4,1.5,1.2,1.5S119.6,55.3,119.6,54.6ZM117.7,50a1.15,1.15,0,0,0,.9,1.2,1.16,1.16,0,0,0,.8-1.2c0-.7-.3-1.2-.8-1.2S117.7,49.4,117.7,50Z" transform="translate(1.6)"/><path class="cls-5" d="M128.8,53.6V55a2.53,2.53,0,0,1-2.8,2.6,2.33,2.33,0,0,1-2.6-2.2V50.5a2.66,2.66,0,0,1,2.6-2.9,2.3,2.3,0,0,1,2.5,2.2v.7h-1.7v-.7a.79.79,0,0,0-.8-.8c-.7,0-.9.8-.9,1.5V52a1.36,1.36,0,0,1,1.2-.5A2.08,2.08,0,0,1,128.8,53.6Zm-1.8,0a.82.82,0,0,0-.9-.8c-.5,0-.9.3-.9.5v2a.86.86,0,0,0,.8.8c.7,0,1-.4,1-1.2A5.65,5.65,0,0,1,127,53.6Z" transform="translate(1.6)"/><circle class="cls-7" cx="104.8" cy="31.8" r="3.9"/><ellipse class="cls-1" cx="101.42" cy="29.61" rx="0.8" ry="0.5" transform="translate(5.95 71.31) rotate(-39.52)"/><circle class="cls-7" cx="82.6" cy="37" r="3.9"/><ellipse class="cls-1" cx="79.32" cy="34.76" rx="0.8" ry="0.5" transform="translate(-2.39 58.42) rotate(-39.52)"/><circle class="cls-7" cx="126.2" cy="37" r="3.9"/><ellipse class="cls-1" cx="122.83" cy="34.81" rx="0.8" ry="0.5" transform="translate(7.53 86.13) rotate(-39.52)"/><ellipse class="cls-1" cx="82.6" cy="38.3" rx="2" ry="1"/><ellipse class="cls-1" cx="104.8" cy="33.2" rx="2" ry="1"/><ellipse class="cls-1" cx="126.2" cy="38.3" rx="2" ry="1"/><path class="cls-8" d="M115.3,87.7a15.52,15.52,0,0,0-4.3-1.6s-11.1-10.6-13.7-12c0,0-6.7,11-9.7,11.9,0,0-.8,1,2.7,1.3,0,0,3.3,0,3.6.4,0,0,1.2.4,1.1,1.1" transform="translate(1.6)"/><path class="cls-8" d="M67.7,90.2a29,29,0,0,0-12.8-3.5s-2.3.5-4.2,4.3c0,0,0,.7,1.2,1.3" transform="translate(1.6)"/><path class="cls-8" d="M47.4,108.4c-1.5-.2-13.2,4.7-13.2,4.7C10.6,127.9,1.4,125.7,1.4,125.7c0-5,8.9-19.2,8.9-19.2,4.7-5.8,1.9-9.6,1.9-9.6C1.8,75.4,3.1,75.2,3.1,75.2,8.9,75.1,31,85.3,31,85.3A111.56,111.56,0,0,0,41.5,90l5.1,2c1.5.8,13.2.5,13.2.5,23.6-6.8,94.1-6.3,94.1-6.3l7.8.6s30.4,3.7,35.1,11.9c0,0-7.2,3.8-11.5,7.8,0,0,6.1-.7,7.5-1l5.3-.4s.4.4-7.7,6.3a77.87,77.87,0,0,1-12.5,4.8l-7.3,1.6c-6,1.5-11.7,4.4-16.8,5.4,0,0-14.7,3-39,1.3s-16.6-2.7-35.7-7.3C59.9,112.4,59.4,110.3,47.4,108.4Z" transform="translate(1.6)"/><path class="cls-8" d="M114.7,118.1s-3.6,15.2-10.3,17.4a26.17,26.17,0,0,1-5.1-8.4,35,35,0,0,1-1.7-6.4s.3-2.4,2.3-2.6c0,0,3.2,1.1,4.7,0" transform="translate(1.6)"/><path class="cls-8" d="M74.9,114.8a38.24,38.24,0,0,1-9.8,10.1s-2.8,3-4.1,2.7c-.7-.2-.3-2.2-.1-4.9a22.25,22.25,0,0,0-5.4-8.7s-1.8-1.5,0-2.3c0,0,.4.1,5-1" transform="translate(1.6)"/><polygon class="cls-9" points="95.9 147.3 103.6 147.3 103.6 147.3 95.9 147.3"/><path class="cls-9" d="M37.2,112.7" transform="translate(1.6)"/><path class="cls-9" d="M37.2,87.3" transform="translate(1.6)"/><polygon class="cls-10" points="8 82.3 29.4 90.5 7.4 84.2 8 82.3"/><polygon class="cls-10" points="12.3 92.4 23.8 94.7 12.1 94.4 12.3 92.4"/><polygon class="cls-10" points="13.5 102.9 23.8 101.7 13.9 104.9 13.5 102.9"/><polygon class="cls-10" points="10.3 108.6 27.4 105.8 10.7 110.5 10.3 108.6"/><polygon class="cls-10" points="6.3 114.9 28.4 108.5 6.9 116.8 6.3 114.9"/><polygon class="cls-10" points="3.3 120.4 28.2 112.7 3.9 122.3 3.3 120.4"/><path class="cls-10" d="M184.3,96.6c0-.4-.2-.8-.6-.8a6.37,6.37,0,0,0-.7-.2,1.7,1.7,0,0,0-1,0,3.58,3.58,0,0,0-1.1.4c-.6.3-.6.4-1,1a1.2,1.2,0,0,0,.3,1.4c.9.4,1.4,1.1,2.4.9a1.09,1.09,0,0,0,.9-.4,2,2,0,0,0,.5-.9l.2-.6" transform="translate(1.6)"/><path class="cls-11" d="M41.6,109.6s4.6-6.3,44.9,9.8c0,0-.8-.1,11.1,3.3" transform="translate(1.6)"/><path class="cls-12" d="M112.8,124.3c5.6.2,16.6.6,24.3.5,0,0,1.6,0,4.2-.1" transform="translate(1.6)"/><path class="cls-10" d="M156.7,113.9a19.34,19.34,0,0,0-4.2.3,3.55,3.55,0,0,1-1,.2c-.3.1-.7.2-1,.3a4.18,4.18,0,0,0-1,.4,4.05,4.05,0,0,0-.9.5c-.3.2-.6.3-.9.5l-.9.6c-.3.2-.5.5-.8.7a4.62,4.62,0,0,0-.7.7c-.2.3-.5.5-.7.8l-.6.9c-.4.6-.6,1.2-1,1.8v-.1a18.29,18.29,0,0,1-.8,2.5,16.27,16.27,0,0,1-1.1,2.3,10.62,10.62,0,0,1-1.6,2.1,9,9,0,0,1-1,.9c-.2.1-.4.3-.6.4l-.6.3-.6-1.5c2.8-.9,5.6-1.9,8.4-2.9,1.4-.5,2.8-1,4.1-1.6.7-.3,1.3-.5,2-.8a17.38,17.38,0,0,0,1.9-1l-.1.1c1.1-1.1,2.2-2.2,3.3-3.2.6-.5,1.1-1,1.7-1.5a13.3,13.3,0,0,1,1.9-1.4h.1v.1a31.66,31.66,0,0,0-2.9,3.5l-2.8,3.5-.1.1h0c-.3.2-.7.5-1,.7l-1,.6a20,20,0,0,1-2.1,1l-2.1.9c-.7.3-1.4.5-2.1.8-1.4.5-2.9.9-4.3,1.3l-4.3,1.2a.89.89,0,0,1-1-.6.81.81,0,0,1,.4-.9h0l.5-.2c.2-.1.3-.2.5-.3s.6-.5.9-.7a14.28,14.28,0,0,0,1.5-1.8,21.16,21.16,0,0,0,1.1-2.1,19.45,19.45,0,0,0,.8-2.2V121h0c.4-.6.7-1.3,1.1-1.9l.7-.9a6,6,0,0,1,.8-.8l.8-.8c.3-.2.6-.5.9-.7l.9-.6c.3-.2.7-.3,1-.5a4.18,4.18,0,0,1,1-.4,3.81,3.81,0,0,1,1-.3l1.1-.3a4.25,4.25,0,0,1,1.1-.2,15.5,15.5,0,0,1,4.3-.1.1.1,0,0,1,.1.1C156.8,113.9,156.8,113.9,156.7,113.9Z" transform="translate(1.6)"/><path class="cls-10" d="M115.3,87.7a14.16,14.16,0,0,0-2.2-.7l-1.1-.3a3.75,3.75,0,0,0-1-.1h-.1l-.1-.1c-2.4-1.9-4.7-3.9-7-5.9-1.2-1-2.3-2-3.5-2.9-.6-.5-1.2-1-1.7-1.4-.3-.2-.6-.5-.9-.7a5.55,5.55,0,0,1-.8-.6l1.3-.4-2.1,3.3c-.7,1.1-1.5,2.1-2.3,3.2a36.12,36.12,0,0,1-2.5,3,10,10,0,0,1-1.5,1.4c-.3.2-.5.4-.8.6a2.81,2.81,0,0,1-1.1.5l.3-.2c.1-.1,0-.1.1-.2v-.1h0l.1.1c.1,0,.1.1.2.1s.2.1.3.1a7.58,7.58,0,0,0,1.6.3h0a13.66,13.66,0,0,1,1.9.2,2.92,2.92,0,0,1,.9.2c.2,0,.3.1.5.1a.35.35,0,0,1,.2.1c.1,0,.2.1.3.2H94a1.79,1.79,0,0,1,.7.5.83.83,0,0,1,.3.8.68.68,0,0,0-.4-.6c-.2-.1-.5-.2-.7-.3l-.1-.1H92.2a10.87,10.87,0,0,0-1.8.1h0a11,11,0,0,1-1.8-.2c-.2,0-.3-.1-.5-.1s-.3-.1-.5-.2a1,1,0,0,1-.5-.6,1.27,1.27,0,0,1-.1-.6c0-.2.1-.3.2-.5l.1-.1.2-.1a3.79,3.79,0,0,0,1.3-1A17.41,17.41,0,0,0,90,83.1c.8-1,1.6-2,2.3-3s1.5-2.1,2.2-3.2,1.4-2.2,2.1-3.2l.5-.8.8.5a8.65,8.65,0,0,1,1,.7c.3.2.6.5.9.7l1.8,1.5,3.4,3.1c2.2,2.1,4.4,4.3,6.4,6.5l-.3-.1a5.27,5.27,0,0,1,1.2.3,5.36,5.36,0,0,1,1.1.5A18.58,18.58,0,0,1,115.3,87.7Z" transform="translate(1.6)"/><path class="cls-10" d="M109.9,87.8,98,77.1,110.5,87a.49.49,0,0,1,.1.7.62.62,0,0,1-.7.1Z" transform="translate(1.6)"/><path class="cls-10" d="M105.1,87.7,97.2,80l8.5,6.9a.62.62,0,0,1,.1.7.43.43,0,0,1-.7.1Z" transform="translate(1.6)"/><path class="cls-10" d="M100.8,87.3l-4.9-4.7,5.5,3.9a.49.49,0,0,1,.1.7c-.1.3-.4.3-.7.1Z" transform="translate(1.6)"/><path class="cls-10" d="M97.1,87.9l-3.9-3.7,4.5,2.9a.62.62,0,0,1,.2.7c-.1.3-.5.3-.8.1C97.2,88,97.2,87.9,97.1,87.9Z" transform="translate(1.6)"/><path class="cls-10" d="M67.7,90.2c-1.1-.3-2.2-.6-3.2-.9-.5-.1-1.1-.3-1.6-.4l-1.6-.3-1.6-.3a8.75,8.75,0,0,0-1.6-.2c-.5-.1-1.1-.1-1.6-.2s-1.1-.1-1.6-.2h.3a.31.31,0,0,0-.2.1c-.1,0-.2.1-.3.1l-.6.3a4.36,4.36,0,0,0-1.1.9,11,11,0,0,0-1,1.1l-.9,1.2v-.2h0v.3c0,.1.1.2.1.4a3,3,0,0,0,.5.7,3.55,3.55,0,0,1-.9-.4.78.78,0,0,1-.4-.4c-.1-.1-.1-.2-.2-.2a.35.35,0,0,1-.1-.2c0-.1,0-.1-.1-.2v-.1l.1-.2.6-1.5a6.71,6.71,0,0,1,.9-1.4,3.45,3.45,0,0,1,1.2-1.2,3,3,0,0,1,.7-.5.76.76,0,0,1,.4-.2c.2-.1.3-.1.5-.2h.3a18.7,18.7,0,0,1,3.4.3,31.84,31.84,0,0,1,3.3.8,30.54,30.54,0,0,1,3.2,1.3A8.59,8.59,0,0,1,67.7,90.2Z" transform="translate(1.6)"/><path class="cls-10" d="M151.2,93c0-.1-.1-.1-.1-.2a.68.68,0,0,0-.4-.6,4.33,4.33,0,0,0-.5-.1.85.85,0,0,0-.7,0,2.61,2.61,0,0,0-.8.3,1.65,1.65,0,0,0-.8,1,.53.53,0,0,0,.1.8,2.88,2.88,0,0,0,2,.5.71.71,0,0,0,.6-.3.91.91,0,0,0,.3-.7.6.6,0,0,0,.1-.4C151.1,93.4,151.3,93.1,151.2,93Z" transform="translate(1.6)"/><path class="cls-10" d="M136.8,93.2a.1.1,0,0,0-.1-.1c0-.2-.1-.3-.3-.4a1,1,0,0,0-.3-.1h-.4a1.06,1.06,0,0,0-.5.2,1,1,0,0,0-.5.6.45.45,0,0,0,0,.5,1.8,1.8,0,0,0,1.2.3.76.76,0,0,0,.4-.2.52.52,0,0,0,.2-.4c.1-.1.1-.1.1-.2C136.8,93.4,136.9,93.2,136.8,93.2Z" transform="translate(1.6)"/><path class="cls-10" d="M62.6,89.8a.1.1,0,0,0-.1-.1c0-.2-.1-.3-.3-.4a1,1,0,0,0-.3-.1h-.4a1.06,1.06,0,0,0-.5.2c-.3.1-.4.3-.5.6a.45.45,0,0,0,0,.5,1.8,1.8,0,0,0,1.2.3.76.76,0,0,0,.4-.2.52.52,0,0,0,.2-.4c.1-.1.1-.1.1-.2C62.5,90.1,62.6,89.9,62.6,89.8Z" transform="translate(1.6)"/><path class="cls-10" d="M54.7,90.8h0c-.1-.2-.1-.3-.2-.3a.31.31,0,0,1-.2-.1H54a1,1,0,0,0-.3.1c-.2.1-.2.2-.3.4a.19.19,0,0,0,0,.3,1.08,1.08,0,0,0,.8.2c.1,0,.2,0,.2-.1a.37.37,0,0,0,.1-.3c0-.1,0-.1.1-.2C54.7,91,54.8,90.9,54.7,90.8Z" transform="translate(1.6)"/><path class="cls-10" d="M57.7,88.8h0a.22.22,0,0,0-.2-.2h-.3l-.2.1c-.1.1-.2.2-.2.3s-.1.2,0,.2a1.42,1.42,0,0,0,.6.2c.1,0,.1,0,.2-.1s.1-.1.1-.2-.1-.1,0-.3Z" transform="translate(1.6)"/><path class="cls-13" d="M153.8,123.1c5.1-1,10.7-3.9,16.8-5.4l7.3-1.6a77.87,77.87,0,0,0,12.5-4.8c8.1-5.8,7.7-6.3,7.7-6.3l-5.3.4c-1.4.4-7.5,1-7.5,1,4.2-4,11.5-7.8,11.5-7.8-4.6-8.2-35.1-11.9-35.1-11.9l-7.8-.6s-70.5-.5-94.1,6.3c0,0-11.7.3-13.2-.5l-5.1-2S34.9,87.3,31,85.2c0,0-22.2-10.3-27.9-10.1,0,0-1.3.1,9.2,21.7,0,0,2.8,3.8-1.9,9.6,0,0-8.9,14.2-8.9,19.2,0,0,9.2,2.2,32.8-12.6,0,0,11.7-5,13.2-4.7" transform="translate(1.6)"/><path class="cls-14" d="M190.6,104.3" transform="translate(1.6)"/><path class="cls-10" d="M141.5,98.7a.1.1,0,0,0-.1-.1c0-.2-.1-.3-.3-.4a1,1,0,0,0-.3-.1h-.4a1.06,1.06,0,0,0-.5.2c-.3.1-.4.3-.5.6a.45.45,0,0,0,0,.5,1.8,1.8,0,0,0,1.2.3.76.76,0,0,0,.4-.2.52.52,0,0,0,.2-.4c.1-.1.1-.1.1-.2S141.5,98.7,141.5,98.7Z" transform="translate(1.6)"/><path class="cls-10" d="M107.5,94.5a.1.1,0,0,0-.1-.1c0-.2-.1-.3-.3-.4a1,1,0,0,0-.3-.1h-.4a1.06,1.06,0,0,0-.5.2c-.3.1-.4.3-.5.6a.45.45,0,0,0,0,.5,1.8,1.8,0,0,0,1.2.3.76.76,0,0,0,.4-.2.52.52,0,0,0,.2-.4c.1-.1.1-.1.1-.2A.2.2,0,0,0,107.5,94.5Z" transform="translate(1.6)"/><path class="cls-10" d="M72.6,96.5c0-.1-.1-.1-.1-.2a.68.68,0,0,0-.4-.6,4.33,4.33,0,0,0-.5-.1.85.85,0,0,0-.7,0,2.61,2.61,0,0,0-.8.3,1.65,1.65,0,0,0-.8,1,.53.53,0,0,0,.1.8,2.88,2.88,0,0,0,2,.5.71.71,0,0,0,.6-.3.91.91,0,0,0,.3-.7.6.6,0,0,0,.1-.4C72.5,96.9,72.7,96.6,72.6,96.5Z" transform="translate(1.6)"/><path class="cls-10" d="M76.1,105.4c0-.1-.1-.1-.1-.2a.68.68,0,0,0-.4-.6,4.33,4.33,0,0,0-.5-.1.85.85,0,0,0-.7,0,2.61,2.61,0,0,0-.8.3,1.65,1.65,0,0,0-.8,1,.53.53,0,0,0,.1.8,2.88,2.88,0,0,0,2,.5.71.71,0,0,0,.6-.3.91.91,0,0,0,.3-.7.6.6,0,0,0,.1-.4C76,105.8,76.2,105.5,76.1,105.4Z" transform="translate(1.6)"/><path class="cls-10" d="M83.4,98.7a.1.1,0,0,0-.1-.1c0-.2-.1-.3-.3-.4a1,1,0,0,0-.3-.1h-.4a1.06,1.06,0,0,0-.5.2c-.3.1-.4.3-.5.6a.45.45,0,0,0,0,.5,1.8,1.8,0,0,0,1.2.3.76.76,0,0,0,.4-.2.52.52,0,0,0,.2-.4c.1-.1.1-.1.1-.2S83.4,98.7,83.4,98.7Z" transform="translate(1.6)"/><path class="cls-10" d="M97.1,92.4h0c-.1-.2-.1-.3-.2-.3s-.2,0-.2-.1h-.3a1,1,0,0,0-.3.1.78.78,0,0,0-.4.4c-.1.1-.1.3,0,.3.3.1.6.3.9.2a.35.35,0,0,0,.4-.4c0-.1,0-.1.1-.2C97,92.6,97.1,92.5,97.1,92.4Z" transform="translate(1.6)"/><path class="cls-10" d="M118.6,97.9h0c-.1-.2-.1-.3-.2-.3s-.2,0-.2-.1h-.3a1,1,0,0,0-.3.1.78.78,0,0,0-.4.4c-.1.1-.1.3,0,.3.3.1.6.3.9.2a.35.35,0,0,0,.4-.4c0-.1,0-.1.1-.2Z" transform="translate(1.6)"/><path class="cls-10" d="M149,99.5h0c-.1-.2-.1-.3-.2-.3s-.2,0-.2-.1h-.3a1,1,0,0,0-.3.1.78.78,0,0,0-.4.4c-.1.1-.1.3,0,.3.3.1.6.3.9.2a.35.35,0,0,0,.4-.4c0-.1,0-.1.1-.2Z" transform="translate(1.6)"/><path class="cls-10" d="M189.4,103.6s-4.2,4.2-5.6,3.5c0,0,7.4,4,15.4-2.8Z" transform="translate(1.6)"/><path class="cls-10" d="M188.9,99.9s-1.1.6-2.8,1.6c-.8.5-1.8,1.1-2.8,1.7a16.3,16.3,0,0,0-2.9,2.3c-.4.4-.9.9-.9,1.3v.2a.35.35,0,0,0,.1.2,2.19,2.19,0,0,0,.5.3,3.93,3.93,0,0,0,1.5-.1c.2-.1.5-.1.7-.2s.5-.2.7-.3a21.72,21.72,0,0,0,2.1-1,4.56,4.56,0,0,1,.8-.4l.1.1s-.2.2-.7.6a5.55,5.55,0,0,1-.8.6c-.3.2-.7.5-1.1.8a5.23,5.23,0,0,1-1.5.7,3.2,3.2,0,0,1-2,.2,1.64,1.64,0,0,1-1.4-1.9,3.86,3.86,0,0,1,1.3-1.7,16.59,16.59,0,0,1,3.2-2.2c1.1-.6,2.1-1.1,2.9-1.5a10.42,10.42,0,0,1,3-1.3Z" transform="translate(1.6)"/><path class="cls-10" d="M164.8,92.2a28.52,28.52,0,0,0-3.7,6,17.11,17.11,0,0,0-1.8,6.6,9.26,9.26,0,0,0,.3,3.3A11.08,11.08,0,0,0,161,111a12.56,12.56,0,0,0,2.2,2.4,31.75,31.75,0,0,0,2.7,2.1l.2.2.1.1c0,.1.2.3.2.4s.2.3.3.4a4.62,4.62,0,0,0,.7.7c.1.1.3.2.4.3s.3.2.5.2a.9.9,0,0,0,.5.1,1.27,1.27,0,0,1,.6.1v.2a1.42,1.42,0,0,1-.6.2c-.2,0-.4.1-.7.1a2,2,0,0,1-.7-.1,1.42,1.42,0,0,1-.6-.2,7.46,7.46,0,0,1-1.2-.7c-.2-.1-.3-.3-.5-.4l-.5-.5.3.3a8.27,8.27,0,0,1-1.6-.9,15.26,15.26,0,0,1-1.6-1.1,8.77,8.77,0,0,1-2.5-2.9,11.34,11.34,0,0,1-1.5-7.4,16.88,16.88,0,0,1,2.5-6.9,27.12,27.12,0,0,1,4.4-5.7Z" transform="translate(1.6)"/><path class="cls-10" d="M167.3,97.4a12.09,12.09,0,0,0-.5,1.8,12.5,12.5,0,0,0-.3,1.9,12.1,12.1,0,0,0-.1,1.9v.9l.1.9.2.9c0,.3.2.6.2.9l.3.9a2,2,0,0,0,.4.8l.5.8c.2.2.4.5.6.7l.3.3.3.3.7.6-.2-.1a27.59,27.59,0,0,0,2.7.8,5.85,5.85,0,0,0,1.3.2h.8l-.4.7v-2a12.25,12.25,0,0,0-.2-1.9,2.92,2.92,0,0,0-.2-.9,6.89,6.89,0,0,0-.3-.8c-.1-.1-.1-.3-.2-.4s-.1-.2-.2-.3-.2-.2-.2-.3-.2-.2-.3-.2l-.4-.3v-.2a6.6,6.6,0,0,1-.1-1.4v-1.4a8.28,8.28,0,0,1,.7-2.7l.2.1a11.33,11.33,0,0,0,.1,2.6,5.07,5.07,0,0,1,.2,1.3l.3,1.2-.4-.5.6.3c.2.1.3.3.5.4a1,1,0,0,1,.4.5c.1.2.2.3.3.5a5.36,5.36,0,0,1,.5,1.1c.1.4.2.7.3,1.1a8.33,8.33,0,0,1,.3,2.2v1.1a4.1,4.1,0,0,1-.1,1.1l-.1.6-.4.2a2.07,2.07,0,0,1-.6.2,4.33,4.33,0,0,0-.5.1,2.77,2.77,0,0,1-.9-.1l-1.5-.3a23.07,23.07,0,0,1-2.8-1l-.1-.1-.1-.1-.7-.7-.4-.4-.3-.4c-.2-.3-.4-.5-.6-.8l-.5-.9a10.37,10.37,0,0,1-.4-1c-.1-.3-.2-.6-.3-1a3.55,3.55,0,0,1-.2-1l-.1-1v-1a3.4,3.4,0,0,1,.1-1c.1-.7.2-1.3.3-1.9a22.85,22.85,0,0,1,1.2-3.7Z" transform="translate(1.6)"/><path class="cls-15" d="M12.1,103.9" transform="translate(1.6)"/><path class="cls-15" d="M8,111.7" transform="translate(1.6)"/><path class="cls-10" d="M184.5,99.9a5.81,5.81,0,0,1-1.1.6l-1.2.3a7.72,7.72,0,0,1-1.5-.2,1.85,1.85,0,0,1-.7-.2c-.2-.1-.5-.2-.7-.3s-.4-.3-.6-.4a1.76,1.76,0,0,1-.4-.5,1.38,1.38,0,0,0-.3-.4.6.6,0,0,1-.1-.4.77.77,0,0,1-.1-.3h.1a1.24,1.24,0,0,1,.2.3c.1.1.1.2.2.3l.3.3c.1.1.3.2.4.3s.3.2.5.2.4.1.6.2.4.1.7.1a5.7,5.7,0,0,0,1.3-.1h1.2c.7,0,1.2.1,1.2.2Z" transform="translate(1.6)"/><path class="cls-10" d="M114.7,118.1a31,31,0,0,1-1.1,5.1,24.13,24.13,0,0,1-.8,2.5,26,26,0,0,1-1,2.5,20.34,20.34,0,0,1-2.7,4.7c-.3.4-.6.7-.9,1.1l-1,1a8.34,8.34,0,0,1-1.2.8l-.7.3-.7.3-.5.2-.4-.5a6,6,0,0,0-.8-.8,5.72,5.72,0,0,0-.7-.8l-1.2-1.8a27.54,27.54,0,0,1-2-3.8c-.3-.6-.5-1.3-.8-2s-.4-1.3-.6-2a30.67,30.67,0,0,1-.7-4.2v-.2a4.33,4.33,0,0,1,.1-.5c.1-.2.1-.3.2-.5a2.36,2.36,0,0,1,.6-.9,2.18,2.18,0,0,1,.9-.7,3.54,3.54,0,0,1,1.1-.3h.2a9,9,0,0,0,2.2.6,4.87,4.87,0,0,0,1.2.1,2,2,0,0,0,1.1-.3,3.69,3.69,0,0,1-2.3.7,11.34,11.34,0,0,1-2.5-.3h.2a2,2,0,0,0-1.2.8,4.88,4.88,0,0,0-.3.7c0,.1-.1.3-.1.4s-.1.3-.1.4v-.2c.3,1.3.6,2.6,1,3.9a14.58,14.58,0,0,0,.7,1.9c.3.6.5,1.2.8,1.8a39,39,0,0,0,1.9,3.5c.4.6.7,1.1,1.1,1.6.2.3.4.5.6.8s.4.5.6.7l-1-.2.5-.2.5-.2.9-.6c.3-.3.6-.5.9-.8a6.47,6.47,0,0,0,.8-.9c.5-.6,1-1.3,1.5-2a15.92,15.92,0,0,0,1.3-2.2A48.14,48.14,0,0,0,114.7,118.1Z" transform="translate(1.6)"/><path class="cls-16" d="M102.2,123.3" transform="translate(1.6)"/><path class="cls-10" d="M102.2,132.9s.5-.4,1.2-1.1,1.7-1.6,2.6-2.6a17.08,17.08,0,0,0,2.2-2.9l.3-.6c.1-.2.2-.3.2-.5a1.09,1.09,0,0,1,.2-.4,1,1,0,0,1-.1.4,1.69,1.69,0,0,1-.2.5c-.1.2-.1.4-.3.6a12.4,12.4,0,0,1-2,3.1,39.34,39.34,0,0,1-3.5,4.1.48.48,0,0,1-.7,0c-.2-.2-.1-.4.1-.6Z" transform="translate(1.6)"/><path class="cls-10" d="M99.5,126.6a.77.77,0,0,1,.3.1,2.13,2.13,0,0,0,.8,0,5,5,0,0,0,1.2-.2,6.94,6.94,0,0,0,1.3-.5,2.09,2.09,0,0,0,.6-.4c.2-.1.4-.3.6-.4a9,9,0,0,0,1-.9,3.19,3.19,0,0,0,.6-.7,1.24,1.24,0,0,1,.2-.3,1.24,1.24,0,0,0-.2.3,9.22,9.22,0,0,1-.5.8,4.06,4.06,0,0,1-.9,1c-.2.2-.4.3-.6.5s-.4.3-.6.5a6.38,6.38,0,0,1-1.4.8,9.29,9.29,0,0,1-1.3.4,4.14,4.14,0,0,1-1,.1h-.4Z" transform="translate(1.6)"/><path class="cls-10" d="M74.9,114.8a19.23,19.23,0,0,1-1.8,3.1c-.7,1-1.4,1.9-2.2,2.9a15.38,15.38,0,0,1-1.2,1.3,15.93,15.93,0,0,1-1.3,1.3,17.41,17.41,0,0,1-1.4,1.2c-.5.4-1,.7-1.5,1.1l.2-.1a10.71,10.71,0,0,1-1.9,1.8,5,5,0,0,1-1.2.8c-.2.1-.5.2-.7.3a2.13,2.13,0,0,1-1.2.1c.1,0-.4-.2-.5-.2a1.38,1.38,0,0,1-.3-.4,1.42,1.42,0,0,1-.2-.6,2.49,2.49,0,0,1-.1-.8,5.28,5.28,0,0,1,.1-1.3,21.05,21.05,0,0,0,.2-2.5v.4a8.8,8.8,0,0,0-.5-1.5,10.09,10.09,0,0,0-.7-1.5,25.43,25.43,0,0,0-1.6-2.8c-.3-.4-.6-.9-.9-1.3s-.7-.8-1-1.2l-.3-.3a1.38,1.38,0,0,1-.3-.4,3.13,3.13,0,0,1-.5-1,1.48,1.48,0,0,1,.2-1.3,2.36,2.36,0,0,1,.9-.6H56l.6-.1L58,111l2.5-.3a22.5,22.5,0,0,1-2.4.8,5.64,5.64,0,0,0-1.2.4l-.6.2-.3.1h-.2c-.2.1-.4.3-.4.4v.3c.1.1.2.3.3.4s.2.1.2.2l.3.3c.4.4.9.8,1.3,1.2a12.67,12.67,0,0,1,1.1,1.3,29,29,0,0,1,1.9,2.9,7.74,7.74,0,0,1,.7,1.6l.3.8c.1.3.2.5.3.8l.1.2v.2c-.1.9-.1,1.7-.2,2.5,0,.4-.1.8-.1,1.2v.4h0l-.1-.1a.1.1,0,0,1-.1-.1h-.1a.76.76,0,0,0,.4-.2l.9-.6c.6-.5,1.2-1,1.8-1.6l.1-.1.1-.1a7.1,7.1,0,0,0,1.4-1c.5-.3.9-.7,1.4-1a28.48,28.48,0,0,0,2.6-2.3A57.81,57.81,0,0,0,74.9,114.8Z" transform="translate(1.6)"/><polygon class="cls-10" points="58 114.3 62.1 113.8 58.7 116.1 58 114.3"/><path class="cls-17" d="M59.6,119.1" transform="translate(1.6)"/><polygon class="cls-10" points="60.8 118.2 67.6 116.1 61.7 120 60.8 118.2"/><path class="cls-17" d="M60.5,122.7" transform="translate(1.6)"/><polygon class="cls-10" points="61.8 121.8 70.6 117.6 62.8 123.5 61.8 121.8"/><path class="cls-10" d="M42.6,108.7s1.2-.6,3-1.3a54.63,54.63,0,0,1,6.8-2.2,12.86,12.86,0,0,1,1.9-.4l1.9-.3a11.14,11.14,0,0,1,1.7-.2c.6,0,1.1-.1,1.6-.1h1.3c.4,0,.7.1,1,.1a6.17,6.17,0,0,0,.9.1H60.8a6.15,6.15,0,0,0-1.3.1,7.72,7.72,0,0,1-1.5.2,13.64,13.64,0,0,0-1.7.4c-.6.2-1.2.3-1.8.5l-1.8.6a57.75,57.75,0,0,0-6.4,2.8c-1.7.9-2.8,1.5-2.8,1.5Z" transform="translate(1.6)"/><path class="cls-10" d="M64.8,108.4s4.7.8,11.8,2.1c3.5.6,7.7,1.3,12.1,2s9.1,1.4,13.9,2.1,9.5,1.3,13.9,1.7c2.2.2,4.4.4,6.4.6l5.8.3h4.9a32.5,32.5,0,0,0,3.7-.3,24.22,24.22,0,0,0,2.4-.5,7.35,7.35,0,0,0,.8-.2s-.3.1-.8.3a13.61,13.61,0,0,1-2.4.6,29.56,29.56,0,0,1-3.8.5c-1.5.1-3.1.2-4.9.2s-3.7,0-5.8-.1-4.2-.2-6.5-.4c-4.5-.4-9.2-1-14-1.6s-9.5-1.5-13.9-2.2-8.5-1.6-12-2.3-6.4-1.4-8.5-1.8A15.47,15.47,0,0,0,64.8,108.4Z" transform="translate(1.6)"/><path class="cls-10" d="M142.4,120.8s.8-.5,2-1.2a26.88,26.88,0,0,1,4.7-1.9,6.47,6.47,0,0,0,1.3-.4,5.85,5.85,0,0,1,1.3-.2c.4,0,.8-.1,1.2-.1H154c.3,0,.7.1.9.1s.5.1.7.1a2.8,2.8,0,0,0,.6.1,2.8,2.8,0,0,1-.6-.1c-.2,0-.4-.1-.7-.1H154c-.3,0-.7.1-1.1.1a5,5,0,0,1-1.2.2,5.64,5.64,0,0,0-1.2.4c-.4.2-.8.3-1.2.5a33.5,33.5,0,0,0-4.3,2.3,17.34,17.34,0,0,0-1.8,1.3.79.79,0,0,1-1.1-.1c-.2-.2-.1-.6.3-1-.1.1,0,.1,0,0Z" transform="translate(1.6)"/><path class="cls-10" d="M140.1,125.6s2.7-1.3,5.5-2.5a31.5,31.5,0,0,1,3.9-1.4,6.37,6.37,0,0,0,.7-.2,1.27,1.27,0,0,1,.6-.1h0c-.2,0-.3.1-.6.2a4.88,4.88,0,0,1-.7.3c-1,.4-2.3,1.2-3.6,1.9-2.6,1.5-5.1,3.1-5.1,3.1a.78.78,0,0,1-1-.2c-.3-.3-.2-.8.3-1.1Z" transform="translate(1.6)"/><path class="cls-10" d="M40,106.7c0-.1-.1-.1-.1-.2a.68.68,0,0,0-.4-.6,4.33,4.33,0,0,0-.5-.1.85.85,0,0,0-.7,0,2.61,2.61,0,0,0-.8.3,1.65,1.65,0,0,0-.8,1,.53.53,0,0,0,.1.8,2.88,2.88,0,0,0,2,.5.71.71,0,0,0,.6-.3.91.91,0,0,0,.3-.7.6.6,0,0,0,.1-.4C39.9,107.1,40.1,106.8,40,106.7Z" transform="translate(1.6)"/><path class="cls-10" d="M177.9,89.8a8.33,8.33,0,0,1-.1,1.2,3.55,3.55,0,0,1-.4.9c-.2.3-.6.4-.8.7a5.11,5.11,0,0,0-1.1,1.6,2.07,2.07,0,0,0-.2.6v.3h-.2a.77.77,0,0,0-.1-.3c0-.1-.1-.2-.1-.3s-.1-.3-.1-.4a4.48,4.48,0,0,1,.1-1.1,5.64,5.64,0,0,1,.4-1.2c.2-.4.3-.8.5-1.2a3.11,3.11,0,0,1,.9-.7,2.16,2.16,0,0,1,1.2-.2Z" transform="translate(1.6)"/><path class="cls-10" d="M171.6,92.2a.1.1,0,0,0-.1-.1c0-.2-.1-.3-.3-.4a1,1,0,0,0-.3-.1h-.4a1.06,1.06,0,0,0-.5.2,1,1,0,0,0-.5.6.45.45,0,0,0,0,.5,1.8,1.8,0,0,0,1.2.3.76.76,0,0,0,.4-.2.52.52,0,0,0,.2-.4c.1-.1.1-.1.1-.2C171.5,92.5,171.6,92.3,171.6,92.2Z" transform="translate(1.6)"/><path class="cls-10" d="M54.9,91.1a24.19,24.19,0,0,1-3.7,1.6c-1.1.4-2.5.8-3.9,1.2-.7.1-1.5.3-2.3.4l-2.4.3c-1.6.2-3.2.4-4.7.5a16.2,16.2,0,0,1-2.2.1,11.48,11.48,0,0,1-1.9-.1,7,7,0,0,1-1.6-.2c-.5-.1-.9-.1-1.2-.2l-1.1-.3v-.1a5,5,0,0,0,1.1.1,4.48,4.48,0,0,0,1.2.1,8.53,8.53,0,0,0,1.6,0,12.75,12.75,0,0,0,1.9-.1c.7-.1,1.4-.1,2.1-.2,1.5-.2,3-.5,4.6-.8s3.1-.7,4.5-1.1,2.8-.6,4-.8c2.3-.4,4-.6,4-.6Z" transform="translate(1.6)"/><path class="cls-10" d="M48.2,97.9a.1.1,0,0,0-.1-.1c0-.2-.1-.3-.3-.4a1,1,0,0,0-.3-.1h-.4a1.06,1.06,0,0,0-.5.2c-.3.1-.4.3-.5.6a.45.45,0,0,0,0,.5,1.8,1.8,0,0,0,1.2.3.76.76,0,0,0,.4-.2.52.52,0,0,0,.2-.4c.1-.1.1-.1.1-.2C48.1,98.2,48.2,98,48.2,97.9Z" transform="translate(1.6)"/></g></svg>